<?xml version="1.0" standalone="no"?>
<!DOCTYPE svg PUBLIC "-//W3C//DTD SVG 20010904//EN"
 "http://www.w3.org/TR/2001/REC-SVG-20010904/DTD/svg10.dtd">
<svg version="1.0" xmlns="http://www.w3.org/2000/svg"
 width="561.000000pt" height="561.000000pt" viewBox="0 0 561.000000 561.000000"
 preserveAspectRatio="xMidYMid meet">
<metadata>
Created by potrace 1.11, written by Peter Selinger 2001-2013
</metadata>
<g transform="translate(0.000000,561.000000) scale(0.100000,-0.100000)"
fill="#000000" stroke="none">
<path d="M2640 5607 c-3 -3 -41 -7 -85 -10 -117 -9 -304 -42 -435 -78 -235
-63 -424 -139 -622 -251 -100 -56 -239 -145 -248 -157 -3 -4 -15 -13 -27 -19
-27 -15 -182 -141 -247 -201 -126 -118 -240 -245 -331 -366 -16 -22 -33 -41
-37 -43 -4 -2 -8 -10 -8 -17 0 -7 -3 -15 -7 -17 -12 -5 -73 -95 -73 -107 0 -6
-4 -11 -10 -11 -5 0 -10 -4 -10 -10 0 -5 -15 -33 -33 -62 -45 -71 -107 -187
-107 -201 0 -6 -6 -18 -13 -26 -11 -13 -69 -142 -73 -161 -1 -7 -13 -38 -29
-75 -39 -94 -116 -380 -129 -483 -3 -24 -7 -46 -10 -50 -2 -4 -7 -36 -11 -72
-3 -36 -10 -96 -15 -135 -8 -71 -6 -494 3 -530 2 -11 8 -51 12 -90 4 -38 8
-72 10 -75 1 -3 6 -27 9 -54 4 -27 14 -79 22 -115 9 -36 17 -73 19 -81 13 -66
90 -303 121 -375 10 -22 18 -42 19 -45 13 -44 144 -304 156 -308 5 -2 9 -8 9
-13 0 -6 16 -35 35 -65 19 -30 35 -57 35 -60 0 -2 5 -10 10 -17 6 -7 38 -50
72 -97 35 -47 67 -90 73 -96 5 -7 24 -29 42 -50 98 -121 231 -254 358 -359 26
-22 54 -46 61 -53 7 -6 15 -12 18 -12 6 0 37 -24 62 -48 8 -7 14 -10 14 -5 0
4 5 0 11 -9 5 -10 17 -18 24 -18 8 0 15 -4 15 -9 0 -5 14 -14 30 -21 17 -7 30
-16 30 -21 0 -5 7 -9 15 -9 8 0 15 -5 15 -11 0 -5 5 -7 10 -4 6 3 13 -1 16 -9
3 -9 10 -13 15 -10 5 3 9 0 9 -6 0 -6 5 -8 10 -5 6 3 10 2 10 -3 0 -5 8 -12
18 -16 21 -7 100 -52 118 -67 7 -6 19 -12 26 -13 7 -1 45 -17 83 -35 39 -19
76 -34 83 -34 6 0 12 -4 12 -9 0 -4 3 -7 8 -6 4 1 23 -4 42 -11 111 -43 190
-68 195 -63 3 4 9 1 13 -5 4 -7 22 -13 40 -15 18 -1 32 -6 32 -10 0 -3 8 -7
18 -7 35 -1 52 -5 52 -11 0 -3 8 -6 18 -7 49 -2 82 -8 82 -14 0 -4 11 -6 25
-4 14 1 28 -2 31 -7 3 -5 13 -3 22 4 13 11 14 11 7 -1 -6 -11 -1 -13 24 -9 17
2 31 1 31 -3 0 -4 8 -8 18 -8 44 1 141 -9 150 -15 6 -3 13 -2 17 4 4 6 12 7
18 3 19 -13 341 -11 349 1 5 7 8 7 8 -2 0 -10 5 -10 20 -2 14 8 20 8 20 0 0
-6 5 -8 13 -3 6 4 28 8 48 8 20 0 43 6 51 13 10 8 18 8 25 1 7 -7 17 -8 25 -3
11 7 35 11 106 16 12 1 22 5 22 10 0 4 7 4 17 1 10 -4 14 -2 10 4 -5 7 0 9 13
6 11 -3 28 -2 37 2 10 5 22 7 27 6 4 -1 20 6 33 15 14 9 22 11 19 5 -4 -6 -3
-11 3 -11 5 0 13 5 16 10 4 6 11 8 16 5 5 -4 9 -1 9 5 0 6 5 8 10 5 6 -4 16
-3 23 2 7 5 19 9 27 8 8 -1 24 3 35 9 11 5 25 11 30 12 18 3 129 45 147 55 10
5 25 9 33 9 9 0 14 4 10 9 -3 6 4 8 15 6 11 -2 20 0 20 5 0 5 14 11 30 15 17
4 30 11 30 16 0 5 3 8 8 7 11 -4 126 53 134 66 4 6 8 8 8 3 0 -4 18 4 40 18
22 14 44 25 50 25 5 0 10 5 10 10 0 6 4 10 10 10 8 0 68 36 95 58 6 4 26 17
45 29 20 12 45 30 57 40 12 10 34 27 49 38 15 11 37 28 48 37 12 10 38 31 59
47 21 16 38 33 38 38 0 4 8 13 18 18 30 16 91 74 91 85 0 5 6 10 14 10 8 0 16
4 18 9 2 4 37 45 78 91 41 45 85 94 97 108 13 13 20 30 16 36 -3 6 -3 8 2 4 9
-8 132 151 128 164 -2 4 1 8 7 8 5 0 24 25 42 56 18 31 40 68 49 82 77 128
180 341 204 422 4 14 11 30 15 35 15 21 81 245 75 255 -3 5 -2 10 3 10 6 0 13
15 16 33 3 17 9 43 12 57 18 77 32 152 40 210 3 25 8 54 10 65 21 105 25 583
6 700 -6 39 -14 87 -17 108 -3 20 -7 54 -11 75 -17 117 -100 410 -148 524 -9
21 -16 39 -16 40 2 5 -52 124 -85 188 -73 144 -88 170 -98 170 -6 0 -8 3 -4 6
8 8 -67 130 -152 244 -263 353 -560 608 -957 821 -51 28 -96 50 -99 49 -3 0
-19 7 -36 16 -48 24 -206 84 -294 111 -172 52 -301 79 -482 104 -78 10 -475
23 -483 16z"/>
</g>
</svg>
